<?xml version="1.0" encoding="UTF-8"?><svg id="Ebene_1" xmlns="http://www.w3.org/2000/svg" viewBox="0 0 1208.819 425.57"><defs><style>.cls-1{fill:#00579c;}</style></defs><path class="cls-1" d="M216.82,177.706l48.395,36.897c15.753,11.831,27.572,23.931,35.123,35.961,13.39,21.35,11.738,39.208,8.001,50.432-3.747,11.221-13.148,26.48-36.675,35.523-13.267,5.083-29.98,7.662-49.678,7.662H45.405c38.958,49.558,99.452,81.388,167.38,81.388,117.518,0,212.785-95.267,212.785-212.785,0-16.662-1.919-32.875-5.541-48.434h-198.698c-2.132,0-3.973.18-5.506.313-4.962.429-7.205,5.678-2.386,10.067.848.772,2.099,1.813,3.381,2.975Z"/><path class="cls-1" d="M212.785,0C95.267,0,0,95.267,0,212.785c0,22.462,3.491,44.106,9.942,64.433h205.428c3.514,0,6.456.017,8.232-.858,3.376-1.664,3.767-5.345.095-8.875-1.241-1.193-2.357-2.277-3.94-3.461l-49.612-37.065c-15.752-11.83-27.571-23.93-35.115-35.967-13.395-21.352-11.745-39.206-8-50.425,3.743-11.218,13.144-26.487,36.679-35.516,13.259-5.09,29.973-7.674,49.675-7.674h178.189C353.674,38.783,287.762,0,212.785,0Z"/><path class="cls-1" d="M487.594,226.875l33.722-23.653c13.816,19.438,39.34,32.552,73.529,32.552,30.209,0,44.257-6.091,44.257-19.205,0-10.303-7.024-14.518-26.928-16.624l-51.051-5.622c-40.746-4.448-60.181-19.435-60.181-50.111,0-33.018,32.081-52.456,88.984-52.456,42.152,0,74.935,11.008,95.543,34.189l-29.739,25.057c-12.41-16.391-36.296-26.461-68.143-26.461-25.759,0-39.81,6.088-39.81,17.329,0,10.303,7.024,14.285,28.334,16.627l45.897,4.448c45.899,4.684,64.867,18.264,64.867,49.176,0,36.764-34.424,57.137-94.372,57.137-49.176,0-87.815-16.158-104.909-42.383Z"/><path class="cls-1" d="M715.335,97.378h47.303v166.261h-47.303V97.378Z"/><path class="cls-1" d="M850.379,221.489v42.15h-47.303V97.378h47.303v77.277l88.751-77.277h58.308l-73.764,63.694,77.979,102.567h-55.029l-58.544-75.637-37.7,33.487Z"/><path class="cls-1" d="M1060.373,184.256c0,28.098,17.796,48.005,50.58,48.005,31.85,0,50.347-20.14,50.347-48.005v-86.878h47.303v91.795c0,47.769-34.891,80.085-97.65,80.085s-97.883-32.549-97.883-80.554v-91.326h47.303v86.878Z"/><path class="cls-1" d="M500.706,337.528l-3.068,6.649h-10.089l16.506-33.011h11.717l16.459,33.011h-10.043l-3.068-6.649h-18.412ZM512.097,322.465c-.511-1.162-1.58-3.953-2.139-5.672h-.092c-.559,1.719-1.627,4.51-2.139,5.672l-4.231,9.067h12.833l-4.231-9.067Z"/><path class="cls-1" d="M543.958,311.166h9.392v33.011h-9.392v-33.011Z"/><path class="cls-1" d="M578.229,332.507v11.67h-9.392v-33.011h22.503c10.601,0,13.67,5.44,13.67,10.461,0,3.674-1.86,7.997-7.439,9.765l8.648,12.786h-10.554l-7.811-11.67h-9.624ZM589.202,326.511c4.557,0,5.905-2.279,5.905-4.604,0-2.277-1.348-4.463-5.859-4.463h-11.019v9.067h10.972Z"/><path class="cls-1" d="M663.981,318.467v25.711h-9.392v-25.711h-13.716v-7.3h36.87v7.3h-13.762Z"/><path class="cls-1" d="M723.13,344.178h-33.661v-33.011h33.337v6.555h-23.945v6.649h23.154v6.138h-23.154v7.114h24.269v6.555Z"/><path class="cls-1" d="M734.067,327.811c0-10.461,8.972-17.76,21.992-17.76,10.74,0,18.505,4.649,20.69,12.367l-9.718,1.721c-1.255-4.51-5.115-6.974-11.067-6.974-7.438,0-12.04,4.046-12.04,10.508,0,6.368,4.695,10.506,12.135,10.506,5.857,0,9.67-2.325,11.065-6.695l9.578,2.045c-2.744,7.485-10.229,11.763-21.014,11.763-13.205,0-21.62-6.88-21.62-17.482Z"/><path class="cls-1" d="M818.511,344.178v-13.484h-19.854v13.484h-9.391v-33.011h9.391v13.02h19.854v-13.02h9.391v33.011h-9.391Z"/><path class="cls-1" d="M853.44,311.166l17.25,18.737c.976,1.07,1.953,2.464,2.602,3.766h.187v-22.503h8.508v33.011h-9.344l-17.901-18.969c-.93-1.023-2.14-2.698-2.604-3.766h-.187v22.735h-8.508v-33.011h9.997Z"/><path class="cls-1" d="M894.133,327.673c0-10.695,8.695-17.622,22.131-17.622s22.131,6.927,22.131,17.622-8.74,17.62-22.131,17.62-22.131-6.974-22.131-17.62ZM928.538,327.673c0-6.37-4.929-10.648-12.274-10.648s-12.274,4.278-12.274,10.648,4.929,10.646,12.274,10.646,12.274-4.278,12.274-10.646Z"/><path class="cls-1" d="M960.027,311.166v25.666h22.364v7.346h-31.755v-33.011h9.391Z"/><path class="cls-1" d="M991.606,327.673c0-10.695,8.695-17.622,22.131-17.622s22.131,6.927,22.131,17.622-8.742,17.62-22.131,17.62-22.131-6.974-22.131-17.62ZM1026.012,327.673c0-6.37-4.929-10.648-12.274-10.648s-12.274,4.278-12.274,10.648,4.927,10.646,12.274,10.646,12.274-4.278,12.274-10.646Z"/><path class="cls-1" d="M1044.806,328.045c0-10.323,8.416-17.993,21.947-17.993,10.414,0,18.178,4.138,20.224,10.786l-10.135,1.674c-1.257-3.253-4.696-5.672-10.369-5.672-7.533,0-11.857,4.372-11.857,11.112,0,6.417,4.417,10.787,11.95,10.787,7.161,0,11.344-3.347,11.623-7.021v-.14h-12.461v-5.812h21.203v18.412h-7.161l-.419-5.672c-2.093,3.44-6.787,6.787-15.157,6.787-12.087,0-19.388-7.299-19.388-17.248Z"/><path class="cls-1" d="M1100.797,311.166h9.391v33.011h-9.391v-33.011Z"/><path class="cls-1" d="M1159.291,344.178h-33.662v-33.011h33.338v6.555h-23.945v6.649h23.154v6.138h-23.154v7.114h24.269v6.555Z"/><path class="cls-1" d="M1169.252,336.877l6.695-4.695c2.744,3.859,7.812,6.463,14.599,6.463,5.998,0,8.787-1.21,8.787-3.813,0-2.045-1.394-2.881-5.346-3.3l-10.136-1.117c-8.091-.883-11.95-3.859-11.95-9.95,0-6.555,6.37-10.414,17.669-10.414,8.368,0,14.878,2.185,18.969,6.787l-5.904,4.976c-2.464-3.255-7.208-5.255-13.531-5.255-5.114,0-7.904,1.21-7.904,3.442,0,2.045,1.396,2.836,5.627,3.3l9.112.885c9.114.928,12.88,3.625,12.88,9.763,0,7.3-6.834,11.344-18.737,11.344-9.765,0-17.435-3.208-20.83-8.416Z"/></svg>